<?xml version="1.0" standalone="no"?>
<!DOCTYPE svg PUBLIC "-//W3C//DTD SVG 20010904//EN"
 "http://www.w3.org/TR/2001/REC-SVG-20010904/DTD/svg10.dtd">
<svg version="1.0" xmlns="http://www.w3.org/2000/svg"
 width="512.000000pt" height="230.000000pt" viewBox="0 0 512.000000 230.000000"
 preserveAspectRatio="xMidYMid meet">

<g transform="translate(0.000000,230.000000) scale(0.100000,-0.100000)"
fill="#000000" stroke="none">
<path d="M1030 2295 c-8 -2 -49 -9 -90 -15 -215 -35 -419 -141 -592 -308 -169
-163 -282 -372 -329 -607 -8 -40 -14 -131 -14 -210 0 -148 12 -232 51 -353 54
-166 136 -303 259 -431 166 -174 341 -275 574 -334 72 -18 114 -21 261 -21
155 1 186 4 271 26 244 66 442 188 595 370 169 200 258 424 271 683 16 324
-91 613 -312 844 -168 175 -351 281 -575 332 -77 18 -329 34 -370 24z m375
-474 c323 -85 595 -291 779 -590 45 -73 45 -74 29 -105 -66 -130 -251 -345
-373 -433 -488 -355 -1099 -302 -1529 130 -87 88 -179 205 -223 285 l-27 48
50 79 c205 319 511 536 846 600 111 21 341 14 448 -14z"/>
<path d="M992 1740 c-109 -29 -187 -75 -272 -160 -87 -86 -132 -164 -160 -276
-37 -144 -18 -304 52 -437 42 -81 164 -203 245 -245 127 -67 295 -89 432 -57
164 39 324 170 399 325 51 107 66 185 59 303 -9 158 -72 291 -187 400 -153
144 -367 200 -568 147z"/>
<path d="M2845 2227 c-95 -25 -161 -73 -214 -155 -63 -98 -62 -87 -59 -973 l3
-804 32 -67 c37 -79 98 -142 173 -177 49 -23 67 -26 165 -26 98 0 116 3 166
26 107 51 169 140 189 274 14 99 13 258 -2 273 -15 15 -146 16 -182 2 -26 -9
-26 -10 -26 -132 0 -136 -11 -174 -63 -212 -41 -30 -140 -29 -183 1 -68 48
-65 6 -62 886 l3 794 29 37 c72 94 194 85 253 -19 19 -34 23 -55 23 -141 0
-64 4 -104 12 -112 19 -19 173 -16 192 4 35 34 15 232 -34 330 -74 152 -252
233 -415 191z"/>
<path d="M3540 2234 c-41 -17 -40 5 -40 -1104 0 -966 2 -1068 16 -1089 16 -23
17 -23 203 -19 164 4 193 7 244 27 78 31 146 87 196 161 69 105 72 126 69 482
-3 299 -4 315 -25 353 -26 49 -64 86 -122 118 l-44 25 32 16 c48 25 100 75
124 120 21 39 22 52 22 321 0 244 -2 287 -18 331 -41 119 -121 195 -247 235
-52 17 -97 22 -230 25 -91 2 -172 1 -180 -2z m378 -231 c90 -67 105 -128 100
-393 -3 -167 -6 -189 -25 -227 -42 -78 -120 -123 -216 -123 -78 0 -77 -7 -77
387 0 336 0 343 21 364 19 19 30 21 96 17 53 -4 82 -11 101 -25z m24 -951 c19
-12 45 -40 58 -64 25 -42 25 -48 28 -300 2 -159 -1 -271 -7 -296 -15 -56 -81
-127 -138 -148 -55 -21 -147 -24 -165 -6 -10 10 -14 104 -16 399 -3 422 -3
426 55 436 59 10 151 0 185 -21z"/>
<path d="M4642 2225 c-73 -20 -101 -37 -152 -87 -87 -87 -115 -187 -108 -393
7 -208 31 -261 269 -606 245 -355 258 -388 259 -629 0 -182 -8 -214 -63 -254
-40 -30 -144 -30 -184 0 -51 37 -63 76 -63 205 0 76 -4 119 -12 127 -8 8 -45
12 -100 12 -106 0 -108 -3 -108 -122 1 -262 69 -386 238 -438 219 -68 428 36
487 244 26 91 17 404 -15 501 -46 142 -121 269 -351 595 -41 58 -90 137 -109
175 l-35 70 0 156 c0 155 0 156 28 192 69 91 171 88 241 -6 18 -24 22 -46 24
-143 4 -112 4 -115 29 -125 27 -10 126 -12 161 -2 24 6 24 7 20 137 -3 117 -6
137 -30 188 -76 164 -257 250 -426 203z"/>
</g>
</svg>
