<svg xmlns="http://www.w3.org/2000/svg" xmlns:xlink="http://www.w3.org/1999/xlink" viewBox="0,0,256,256" width="64px" height="64px" fill-rule="nonzero"><g fill="#aeafaf" fill-rule="nonzero" stroke="none" stroke-width="1" stroke-linecap="butt" stroke-linejoin="miter" stroke-miterlimit="10" stroke-dasharray="" stroke-dashoffset="0" font-family="none" font-weight="none" font-size="none" text-anchor="none" style="mix-blend-mode: normal"><g transform="scale(4,4)"><path d="M13,6c-3.85,0 -7,3.15 -7,7v38c0,3.85 3.15,7 7,7h38c3.85,0 7,-3.15 7,-7v-38c0,-3.85 -3.15,-7 -7,-7zM18.40039,8h5.11328l-15.51367,31.94141v-1.83594zM29.25586,8h21.74414c2.77,0 5,2.23 5,5v38c0,2.77 -2.23,5 -5,5h-38c-2.77,0 -5,-2.23 -5,-5v-8.61719l3.75,-6.06641v9.68359h3.25v-6.66602l3.75,6.66602h3h0.25v-12h-3.25v6.66602l-3.75,-6.66602h-1.81836l8.44336,-13.65625v11.65625h3.375v-5h4v-3h-4v-3h5v-3h-5h-1.92578zM12.70898,8.01367l-4.70898,22.46484v-17.47852c0,-2.67156 2.0765,-4.83551 4.70898,-4.98633zM36.5,18c-3.59,0 -6.5,3.13 -6.5,7c0,3.87 2.91,7 6.5,7c3.59,0 6.5,-3.13 6.5,-7c0,-3.87 -2.91,-7 -6.5,-7zM42,18l4,7l-4,7h4l2,-3.5l2,3.5h4l-4,-7l4,-7h-4l-2,3.5l-2,-3.5zM36.5,21c0.83,0 1.5,0.67 1.5,1.5v5c0,0.83 -0.67,1.5 -1.5,1.5c-0.83,0 -1.5,-0.67 -1.5,-1.5v-5c0,-0.83 0.67,-1.5 1.5,-1.5zM50.25,33.5c-2.462,0 -4.25,1.577 -4.25,3.75c0,2.312 2.11806,3.18527 3.66406,3.82227c0.687,0.283 1.83398,0.75594 1.83398,1.08594c0,0.677 -0.874,0.75 -1.25,0.75c-0.355,0 -0.94645,0.00139 -1.43945,-1.59961l-2.86719,0.88281c0.946,3.072 2.86459,3.7168 4.30859,3.7168c2.502,0 4.25,-1.54105 4.25,-3.74805c0,-2.338 -2.13341,-3.21738 -3.69141,-3.85937c-0.632,-0.261 -1.80859,-0.74483 -1.80859,-1.04883c0,-0.741 1.199,-0.75 1.25,-0.75c0.355,0 1.09792,0.32628 1.29492,1.11328l2.91016,-0.72852c-0.55,-2.199 -2.57708,-3.38672 -4.20508,-3.38672zM23,34v12h3h4.625l0.375,-3h-5v-1.5h4v-3h-4v-1.5h5l-0.375,-3h-4.625zM31,34l3,12h3l1.5,-6l1.5,6h3l3,-12h-3l-1.5,6l-1.5,-6h-3l-1.5,6l-1.5,-6zM12,48c-0.552,0 -1,0.448 -1,1v2c0,0.552 0.448,1 1,1c0.552,0 1,-0.448 1,-1v-2c0,-0.552 -0.448,-1 -1,-1zM17,48c-0.552,0 -1,0.448 -1,1v2c0,0.552 0.448,1 1,1c0.552,0 1,-0.448 1,-1v-2c0,-0.552 -0.448,-1 -1,-1zM22,48c-0.552,0 -1,0.448 -1,1v2c0,0.552 0.448,1 1,1c0.552,0 1,-0.448 1,-1v-2c0,-0.552 -0.448,-1 -1,-1zM27,48c-0.552,0 -1,0.448 -1,1v2c0,0.552 0.448,1 1,1c0.552,0 1,-0.448 1,-1v-2c0,-0.552 -0.448,-1 -1,-1zM32,48c-0.552,0 -1,0.448 -1,1v2c0,0.552 0.448,1 1,1c0.552,0 1,-0.448 1,-1v-2c0,-0.552 -0.448,-1 -1,-1zM37,48c-0.552,0 -1,0.448 -1,1v2c0,0.552 0.448,1 1,1c0.552,0 1,-0.448 1,-1v-2c0,-0.552 -0.448,-1 -1,-1zM42,48c-0.552,0 -1,0.448 -1,1v2c0,0.552 0.448,1 1,1c0.552,0 1,-0.448 1,-1v-2c0,-0.552 -0.448,-1 -1,-1zM47,48c-0.552,0 -1,0.448 -1,1v2c0,0.552 0.448,1 1,1c0.552,0 1,-0.448 1,-1v-2c0,-0.552 -0.448,-1 -1,-1zM52,48c-0.552,0 -1,0.448 -1,1v2c0,0.552 0.448,1 1,1c0.552,0 1,-0.448 1,-1v-2c0,-0.552 -0.448,-1 -1,-1z"></path></g></g></svg>