<svg xmlns="http://www.w3.org/2000/svg" xmlns:xlink="http://www.w3.org/1999/xlink" viewBox="0,0,256,256" width="128px" height="128px" fill-rule="nonzero"><g fill="#aeafaf" fill-rule="nonzero" stroke="none" stroke-width="1" stroke-linecap="butt" stroke-linejoin="miter" stroke-miterlimit="10" stroke-dasharray="" stroke-dashoffset="0" font-family="none" font-weight="none" font-size="none" text-anchor="none" style="mix-blend-mode: normal"><g transform="scale(4,4)"><path d="M24.89844,10.62695c-0.2775,0.0055 -0.55644,0.02559 -0.83594,0.05859c-1.114,0.134 -2.16777,0.4802 -3.13477,1.0332c-2.5363,1.45025 -3.96071,4.26462 -3.9043,7.17383c-1.97814,-1.39966 -4.49599,-1.92171 -6.85156,-1.20703c-1.065,0.324 -2.0433,0.85131 -2.9043,1.57031c-0.861,0.72 -1.55741,1.58522 -2.06641,2.57422c-1.5624,3.0341 -0.84131,6.80743 1.57227,9.29688c-1.92638,0.0811 -3.78201,0.90141 -5.04883,2.4082c-0.634,0.752 -1.10348,1.61355 -1.39648,2.56055c-0.293,0.947 -0.39002,1.92334 -0.29102,2.90234c0.357,3.541 3.55811,6.32303 7.28711,6.33203l19.77344,0.05078c0.00953,0.00027 0.01777,0.00586 0.02734,0.00586h9.75c0.00957,0 0.01781,-0.00559 0.02734,-0.00586l19.77539,-0.05078c3.728,-0.009 6.93011,-2.79103 7.28711,-6.33203c0.099,-0.979 0.00003,-1.95434 -0.29297,-2.90234c-0.293,-0.947 -0.76248,-1.80855 -1.39648,-2.56055c-1.26737,-1.50624 -3.12241,-2.32684 -5.04883,-2.4082c2.41223,-2.48547 3.1351,-6.26115 1.57227,-9.29687c-0.509,-0.99 -1.20541,-1.85422 -2.06641,-2.57422c-0.861,-0.718 -1.8393,-1.24826 -2.9043,-1.57227c-2.35198,-0.71348 -4.87032,-0.19033 -6.84961,1.20898c0.05656,-2.9092 -1.37068,-5.72358 -3.90625,-7.17383c-0.967,-0.553 -2.02177,-0.8992 -3.13477,-1.0332c-1.113,-0.132 -2.22002,-0.04533 -3.29102,0.26367c-2.02602,0.58455 -3.65561,1.99848 -4.64648,3.80664c-0.99101,-1.80802 -2.62006,-3.22212 -4.64648,-3.80664c-0.801,-0.231 -1.62258,-0.33877 -2.45508,-0.32227zM25.0625,12.625c0.588,0 1.16933,0.08114 1.73633,0.24414c2.27179,0.65502 3.87815,2.72392 4.19336,5.10937c-0.05749,0.55991 -0.05708,1.13005 0,1.70508c-0.0135,0.10316 -0.02244,0.20529 -0.04102,0.30859l-0.5,2.78906l-3.20703,15.93555l-7.67578,-17.35937c-1.297,-2.935 -0.26444,-6.40634 2.35156,-7.90234c0.734,-0.419 1.53386,-0.6812 2.38086,-0.7832c0.255,-0.031 0.50872,-0.04687 0.76172,-0.04687zM38.9375,12.625c0.252,0 0.50572,0.01587 0.76172,0.04688c0.847,0.101 1.64786,0.3642 2.38086,0.7832c2.617,1.496 3.64956,4.96634 2.35156,7.90234l-7.66797,17.33984l-2.82422,-14.20898l3.02539,-1.5918c0.407,-0.214 0.61586,-0.67705 0.50586,-1.12305c-0.111,-0.448 -0.5107,-0.76172 -0.9707,-0.76172h-3.26758l-0.18359,-1.01953c-0.01849,-0.10266 -0.02753,-0.20412 -0.04102,-0.30664c0.05728,-0.57569 0.05756,-1.14648 0,-1.70703c0.31473,-2.38545 1.91961,-4.45435 4.19141,-5.10937c0.568,-0.163 1.15028,-0.24414 1.73828,-0.24414zM12.35352,19.36133c2.396,0 4.74176,1.53127 5.75977,3.94727l7.25586,17.53906l-16.05664,-10.19336c-2.688,-1.755 -3.71203,-5.22816 -2.33203,-7.91016c0.385,-0.75 0.91436,-1.40808 1.56836,-1.95508c0.654,-0.546 1.39608,-0.94641 2.20508,-1.19141c0.527,-0.16 1.06361,-0.23633 1.59961,-0.23633zM51.60742,19.36328c0.54927,-0.00381 1.101,0.0717 1.64063,0.23633c0.809,0.245 1.55108,0.64736 2.20508,1.19336c0.654,0.547 1.18136,1.20408 1.56836,1.95508c1.379,2.679 0.35478,6.15334 -2.32422,7.90234l-15.95703,10.19922l7.14844,-17.54297c1.01319,-2.40175 3.33859,-3.92684 5.71875,-3.94336zM32.00195,25.47656l3.11719,17.36133c0.039,0.216 0.145,0.40545 0.29688,0.54883h-6.83008c0.15095,-0.14316 0.25805,-0.33328 0.29687,-0.54883zM7.07813,33.10938c1.069,0 2.16133,0.31398 3.11133,0.95898l13.69922,9.30273l-16.55859,-0.04102c-2.718,-0.007 -5.04673,-1.9982 -5.30273,-4.5332c-0.072,-0.712 -0.00206,-1.42333 0.21094,-2.11133c0.214,-0.69 0.55563,-1.31628 1.01563,-1.86328c0.948,-1.126 2.36322,-1.71289 3.82422,-1.71289zM56.92188,33.10938c1.46,0 2.87522,0.58589 3.82422,1.71289c0.46,0.547 0.80163,1.17428 1.01563,1.86328c0.213,0.689 0.28489,1.40128 0.21289,2.11328c-0.256,2.535 -2.58473,4.52425 -5.30273,4.53125l-16.55859,0.04102l13.69727,-9.30273c0.95,-0.646 2.04233,-0.95898 3.11133,-0.95898zM12,47.76172c-0.552,0 -1,0.448 -1,1v2c0,0.552 0.448,1 1,1c0.552,0 1,-0.448 1,-1v-2c0,-0.552 -0.448,-1 -1,-1zM17,47.76172c-0.552,0 -1,0.448 -1,1v2c0,0.552 0.448,1 1,1c0.552,0 1,-0.448 1,-1v-2c0,-0.552 -0.448,-1 -1,-1zM22,47.76172c-0.552,0 -1,0.448 -1,1v2c0,0.552 0.448,1 1,1c0.552,0 1,-0.448 1,-1v-2c0,-0.552 -0.448,-1 -1,-1zM27,47.76172c-0.552,0 -1,0.448 -1,1v2c0,0.552 0.448,1 1,1c0.552,0 1,-0.448 1,-1v-2c0,-0.552 -0.448,-1 -1,-1zM32,47.76172c-0.552,0 -1,0.448 -1,1v2c0,0.552 0.448,1 1,1c0.552,0 1,-0.448 1,-1v-2c0,-0.552 -0.448,-1 -1,-1zM37,47.76172c-0.552,0 -1,0.448 -1,1v2c0,0.552 0.448,1 1,1c0.552,0 1,-0.448 1,-1v-2c0,-0.552 -0.448,-1 -1,-1zM42,47.76172c-0.552,0 -1,0.448 -1,1v2c0,0.552 0.448,1 1,1c0.552,0 1,-0.448 1,-1v-2c0,-0.552 -0.448,-1 -1,-1zM47,47.76172c-0.552,0 -1,0.448 -1,1v2c0,0.552 0.448,1 1,1c0.552,0 1,-0.448 1,-1v-2c0,-0.552 -0.448,-1 -1,-1zM52,47.76172c-0.552,0 -1,0.448 -1,1v2c0,0.552 0.448,1 1,1c0.552,0 1,-0.448 1,-1v-2c0,-0.552 -0.448,-1 -1,-1z"></path></g></g></svg>